<!--?xml version="1.0" encoding="utf-8"?-->
<!-- Svg Vector Icons : http://www.onlinewebfonts.com/icon -->

<svg version="1.1" xmlns="http://www.w3.org/2000/svg" xmlns:xlink="http://www.w3.org/1999/xlink" x="0px" y="0px" viewBox="0 0 256 256" enable-background="new 0 0 256 256" xml:space="preserve">
<metadata> Svg Vector Icons : http://www.onlinewebfonts.com/icon </metadata>
<g><g><g><path fill="#0000FF" data-title="Layer 0" xs="0" d="M85.4,26.8L45.2,43.7l0,26.2v26.2L43,97c-4.7,2-7.2,5.8-7.2,10.6c0,3.5,1,5.8,3.5,8.1c2.4,2.4,4.4,3.1,7.8,3.1c3.6,0,6-1.1,8.4-3.8c5.3-5.8,3-14.8-4.4-18l-2.2-0.9v-25c0-23.6,0-25,0.8-24.7c0.5,0.1,17.8,7.3,38.4,16c20.7,8.7,38,15.7,38.5,15.6c2-0.4,85.1-33.7,84.8-34c-0.5-0.4-84-33.7-85-33.9C126,10,107.6,17.5,85.4,26.8z"/><path fill="#0000FF" data-title="Layer 1" xs="1" d="M150.6,78.6c-13.2,5.3-24.1,9.6-24.3,9.6c-0.2,0-10.5-4.2-23-9.5c-12.4-5.2-22.8-9.5-23.1-9.5c-1.5,0-6.1,12.7-7.2,19.9c-1.6,10.5,0.4,23.2,5.2,32.9c3.7,7.3,10.9,15.7,17.7,20.5c19.7,13.9,45.9,13.7,65.3-0.6c18.2-13.4,26.5-36.7,20.9-58.5c-1.8-6.9-5.4-14.7-6.8-14.6C174.9,68.9,163.8,73.3,150.6,78.6z"/><path fill="#0000FF" data-title="Layer 2" xs="2" d="M145.5,182.6c-9.3,22.5-17.1,40.8-17.3,40.8c-0.2,0-7.8-18.1-17.1-40.3c-9.2-22.1-16.8-40.3-16.9-40.4c-0.2-0.3-11.8,2.3-17.3,3.9c-15.5,4.5-26.1,10.1-34,17.9c-4.4,4.4-6.4,7.4-8.1,12.3c-1.1,3-1.1,3.1-1.2,30.3c-0.1,18.1,0,28.2,0.3,30c0.7,3.7,2.4,6.1,5.5,7.7l2.5,1.3h86.1h86.1l2.5-1.3c1.6-0.8,3-1.9,3.9-3.2l1.4-2l0.1-30.3c0.1-20.8,0-31.1-0.4-32.8c-0.9-4.2-3.8-9.4-7.7-13.5c-6.9-7.3-17.3-13-31.3-17.1c-5.5-1.6-17.3-4.2-19.1-4.2C162.6,141.7,161.8,143.6,145.5,182.6z"/></g></g></g>
</svg>