<svg version="1.2" xmlns="http://www.w3.org/2000/svg" viewBox="0 0 1059 286" width="1059" height="286">
	<title>Upwork_Logo-svg</title>
	<style>
		.s0 { fill: #14a800 } 
	</style>
	<g id="Layer">
		<g id="Layer">
			<path id="Layer" fill-rule="evenodd" class="s0" d="m365.5 142.9c0 48.5-36.9 84.4-83.3 84.4-1.2 0-3.5-0.1-3.5-0.1-15-0.5-29.5-5-42.2-13-4.9-2.9-9.5-6.1-13.8-9.7l-13.2 80.7h-37.9l20-113.9c-21.4-30-32.6-64.2-37.3-82v54.1c0 49.4-31.4 83.9-76.4 83.9-22.6 0-42.1-8.2-56.4-23.9-13.9-15.2-21.5-36.5-21.5-60v-80.5h37.3l-0.3 80.5c0 29.2 14.9 50.8 40.9 50.8 26 0 39.3-21.6 39.3-50.8v-80.5h64.7c4.9 19.9 11.2 41.3 19.7 57.3 7.5-31.4 33.7-61.9 80.5-61.9 46.4 0 83.4 36.1 83.4 84.6zm-37.2 0c0-30.4-20.2-51.2-46.2-51.2-26.3 0-46.2 17.2-53 71.6 5.3 8.6 24.3 30.8 53 30.8 26 0 46.2-20.8 46.2-51.2z"/>
			<path id="Layer" class="s0" d="m818 80.1v-17.2h-36.6v159.3h37.1v-62.4c0-38.4 3.5-66 55-62.4v-36.4c-24-1.8-42.7 3.2-55.5 19.1z"/>
		</g>
		<path id="Layer" class="s0" d="m560.4 62.9l-26.9 111.4-28.7-111.4h-47.2l-28.8 111.4-26.8-111.4h-37.6l41.2 159.4h44.6l31-113.2 30.7 113.2h44.6l43.6-159.4z"/>
		<g id="Layer">
			<path id="Layer" fill-rule="evenodd" class="s0" d="m765.1 142.9c0 48.4-36.9 84.3-83.3 84.3-46.7 0-83.3-35.9-83.3-84.3 0-48.4 36.6-84.6 83.3-84.6 46.5 0 83.3 36.2 83.3 84.6zm-37.1 0c0-30.4-20.2-51.2-46.2-51.2-26.3 0-46.2 20.7-46.2 51.2 0 30.5 19.8 51.3 46.2 51.3 26 0 46.2-20.9 46.2-51.3z"/>
			<path id="Layer" class="s0" d="m926.7 143.9h8.6l51.8 78.4h41.9l-59.6-86.9c28.9-11.3 48.3-40.8 48.3-72.5h-37c0 34.4-27.1 47.4-54 47.4v-110.3h-37.2v222.3h37.1z"/>
		</g>
	</g>
</svg>